<?xml version="1.0" standalone="no"?>
<!DOCTYPE svg PUBLIC "-//W3C//DTD SVG 1.1//EN" "http://www.w3.org/Graphics/SVG/1.1/DTD/svg11.dtd">
<svg width="500mm" height="300mm" viewBox="-146 -150 500 300" xmlns="http://www.w3.org/2000/svg" version="1.1">
<title>OpenSCAD Model</title>
<path d="
M 354,-150 L -146,-150 L -146,150 L 354,150 z
M -12.1,-76.575 L -12.1,-78.225 L -13.75,-78.225 L -13.75,-79.225 L -12.1,-79.225 L -12.1,-80.875
 L -11.1,-80.875 L -11.1,-79.225 L -9.45,-79.225 L -9.45,-78.225 L -11.1,-78.225 L -11.1,-76.575
 z
M 11.9,-76.575 L 11.9,-78.225 L 10.25,-78.225 L 10.25,-79.225 L 11.9,-79.225 L 11.9,-80.875
 L 12.9,-80.875 L 12.9,-79.225 L 14.55,-79.225 L 14.55,-78.225 L 12.9,-78.225 L 12.9,-76.575
 z
M 234.5,-59.85 L 234.5,-61.5 L 232.85,-61.5 L 232.85,-62.5 L 234.5,-62.5 L 234.5,-64.15
 L 235.5,-64.15 L 235.5,-62.5 L 237.15,-62.5 L 237.15,-61.5 L 235.5,-61.5 L 235.5,-59.85
 z
M 127.5,-59.85 L 127.5,-61.5 L 125.85,-61.5 L 125.85,-62.5 L 127.5,-62.5 L 127.5,-64.15
 L 128.5,-64.15 L 128.5,-62.5 L 130.15,-62.5 L 130.15,-61.5 L 128.5,-61.5 L 128.5,-59.85
 z
M 212.5,-37.85 L 212.5,-39.5 L 210.85,-39.5 L 210.85,-40.5 L 212.5,-40.5 L 212.5,-42.15
 L 213.5,-42.15 L 213.5,-40.5 L 215.15,-40.5 L 215.15,-39.5 L 213.5,-39.5 L 213.5,-37.85
 z
M 149.5,-37.85 L 149.5,-39.5 L 147.85,-39.5 L 147.85,-40.5 L 149.5,-40.5 L 149.5,-42.15
 L 150.5,-42.15 L 150.5,-40.5 L 152.15,-40.5 L 152.15,-39.5 L 150.5,-39.5 L 150.5,-37.85
 z
M 286,-14.05 L 286,-15.7 L 284.35,-15.7 L 284.35,-16.7 L 286,-16.7 L 286,-18.35
 L 287,-18.35 L 287,-16.7 L 288.65,-16.7 L 288.65,-15.7 L 287,-15.7 L 287,-14.05
 z
M 14.9,-12.1 L 14.9,-13.75 L 13.25,-13.75 L 13.25,-14.75 L 14.9,-14.75 L 14.9,-16.4
 L 15.9,-16.4 L 15.9,-14.75 L 17.55,-14.75 L 17.55,-13.75 L 15.9,-13.75 L 15.9,-12.1
 z
M 100.35,-4.32 L 100.35,-5.825 L 98.845,-5.825 L 98.845,-6.825 L 100.35,-6.825 L 100.35,-8.33
 L 101.35,-8.33 L 101.35,-6.825 L 102.855,-6.825 L 102.855,-5.825 L 101.35,-5.825 L 101.35,-4.32
 z
M 40.9,-4.32 L 40.9,-5.825 L 39.395,-5.825 L 39.395,-6.825 L 40.9,-6.825 L 40.9,-8.33
 L 41.9,-8.33 L 41.9,-6.825 L 43.405,-6.825 L 43.405,-5.825 L 41.9,-5.825 L 41.9,-4.32
 z
M 225.056,2.15 L 225.056,0.5 L 223.406,0.5 L 223.406,-0.5 L 225.056,-0.5 L 225.056,-2.15
 L 226.056,-2.15 L 226.056,-0.5 L 227.706,-0.5 L 227.706,0.5 L 226.056,0.5 L 226.056,2.15
 z
M 135.056,2.15 L 135.056,0.5 L 133.406,0.5 L 133.406,-0.5 L 135.056,-0.5 L 135.056,-2.15
 L 136.056,-2.15 L 136.056,-0.5 L 137.706,-0.5 L 137.706,0.5 L 136.056,0.5 L 136.056,2.15
 z
M 304.3,9.55 L 304.3,7.9 L 302.65,7.9 L 302.65,6.9 L 304.3,6.9 L 304.3,5.25
 L 305.3,5.25 L 305.3,6.9 L 306.95,6.9 L 306.95,7.9 L 305.3,7.9 L 305.3,9.55
 z
M 14.9,16.4 L 14.9,14.75 L 13.25,14.75 L 13.25,13.75 L 14.9,13.75 L 14.9,12.1
 L 15.9,12.1 L 15.9,13.75 L 17.55,13.75 L 17.55,14.75 L 15.9,14.75 L 15.9,16.4
 z
M 40.9,18.33 L 40.9,16.825 L 39.395,16.825 L 39.395,15.825 L 40.9,15.825 L 40.9,14.32
 L 41.9,14.32 L 41.9,15.825 L 43.405,15.825 L 43.405,16.825 L 41.9,16.825 L 41.9,18.33
 z
M 100.35,18.33 L 100.35,16.825 L 98.845,16.825 L 98.845,15.825 L 100.35,15.825 L 100.35,14.32
 L 101.35,14.32 L 101.35,15.825 L 102.855,15.825 L 102.855,16.825 L 101.35,16.825 L 101.35,18.33
 z
M 225.056,52.15 L 225.056,50.5 L 223.406,50.5 L 223.406,49.5 L 225.056,49.5 L 225.056,47.85
 L 226.056,47.85 L 226.056,49.5 L 227.706,49.5 L 227.706,50.5 L 226.056,50.5 L 226.056,52.15
 z
M 135.056,52.15 L 135.056,50.5 L 133.406,50.5 L 133.406,49.5 L 135.056,49.5 L 135.056,47.85
 L 136.056,47.85 L 136.056,49.5 L 137.706,49.5 L 137.706,50.5 L 136.056,50.5 L 136.056,52.15
 z
M 91.5,57.375 L 91.5,55.725 L 89.85,55.725 L 89.85,54.725 L 91.5,54.725 L 91.5,53.075
 L 92.5,53.075 L 92.5,54.725 L 94.15,54.725 L 94.15,55.725 L 92.5,55.725 L 92.5,57.375
 z
M 251.5,57.375 L 251.5,55.725 L 249.85,55.725 L 249.85,54.725 L 251.5,54.725 L 251.5,53.075
 L 252.5,53.075 L 252.5,54.725 L 254.15,54.725 L 254.15,55.725 L 252.5,55.725 L 252.5,57.375
 z
M 11.9,80.875 L 11.9,79.225 L 10.25,79.225 L 10.25,78.225 L 11.9,78.225 L 11.9,76.575
 L 12.9,76.575 L 12.9,78.225 L 14.55,78.225 L 14.55,79.225 L 12.9,79.225 L 12.9,80.875
 z
M -12.1,80.875 L -12.1,79.225 L -13.75,79.225 L -13.75,78.225 L -12.1,78.225 L -12.1,76.575
 L -11.1,76.575 L -11.1,78.225 L -9.45,78.225 L -9.45,79.225 L -11.1,79.225 L -11.1,80.875
 z
M 307.8,84.25 L 307.8,82.6 L 306.15,82.6 L 306.15,81.6 L 307.8,81.6 L 307.8,79.95
 L 308.8,79.95 L 308.8,81.6 L 310.45,81.6 L 310.45,82.6 L 308.8,82.6 L 308.8,84.25
 z
M 251.5,136.925 L 251.5,135.275 L 249.85,135.275 L 249.85,134.275 L 251.5,134.275 L 251.5,132.625
 L 252.5,132.625 L 252.5,134.275 L 254.15,134.275 L 254.15,135.275 L 252.5,135.275 L 252.5,136.925
 z
M 91.5,136.925 L 91.5,135.275 L 89.85,135.275 L 89.85,134.275 L 91.5,134.275 L 91.5,132.625
 L 92.5,132.625 L 92.5,134.275 L 94.15,134.275 L 94.15,135.275 L 92.5,135.275 L 92.5,136.925
 z
M 337.7,137.15 L 337.7,135.5 L 336.05,135.5 L 336.05,134.5 L 337.7,134.5 L 337.7,132.85
 L 338.7,132.85 L 338.7,134.5 L 340.35,134.5 L 340.35,135.5 L 338.7,135.5 L 338.7,137.15
 z
M 277.9,137.15 L 277.9,135.5 L 276.25,135.5 L 276.25,134.5 L 277.9,134.5 L 277.9,132.85
 L 278.9,132.85 L 278.9,134.5 L 280.55,134.5 L 280.55,135.5 L 278.9,135.5 L 278.9,137.15
 z
" stroke="black" fill="lightgray" stroke-width="0.5"/>
</svg>
